<mxfile host="app.diagrams.net" modified="2024-04-01T11:34:12.110Z" agent="Mozilla/5.0 (Macintosh; Intel Mac OS X 10_15_7) AppleWebKit/537.36 (KHTML, like Gecko) Chrome/123.0.0.0 Safari/537.36" etag="UJJRphr0vLq4LyyxJLmc" version="24.2.0" type="github">
  <diagram name="Page-1" id="x3iR-OoKMe4W1yOOWquh">
    <mxGraphModel dx="892" dy="535" grid="1" gridSize="10" guides="1" tooltips="1" connect="1" arrows="1" fold="1" page="1" pageScale="1" pageWidth="827" pageHeight="2430" math="0" shadow="0">
      <root>
        <mxCell id="0" />
        <mxCell id="1" parent="0" />
        <mxCell id="Khr1l47vYACz_TMm-MOE-15" value="" style="rounded=0;whiteSpace=wrap;html=1;fillColor=#fff2cc;strokeColor=#d6b656;" vertex="1" parent="1">
          <mxGeometry x="29" y="220" width="771" height="240" as="geometry" />
        </mxCell>
        <mxCell id="Khr1l47vYACz_TMm-MOE-13" value="" style="rounded=0;whiteSpace=wrap;html=1;fillColor=#dae8fc;strokeColor=#6c8ebf;" vertex="1" parent="1">
          <mxGeometry x="29" y="30" width="770" height="160" as="geometry" />
        </mxCell>
        <mxCell id="Khr1l47vYACz_TMm-MOE-1" value="Creator-Dashboard" style="rounded=0;whiteSpace=wrap;html=1;" vertex="1" parent="1">
          <mxGeometry x="490" y="70" width="120" height="60" as="geometry" />
        </mxCell>
        <mxCell id="Khr1l47vYACz_TMm-MOE-2" value="&lt;font style=&quot;font-size: 20px;&quot;&gt;Database&lt;/font&gt;" style="rounded=0;whiteSpace=wrap;html=1;fillColor=#f8cecc;strokeColor=#b85450;" vertex="1" parent="1">
          <mxGeometry x="30" y="490" width="770" height="60" as="geometry" />
        </mxCell>
        <mxCell id="Khr1l47vYACz_TMm-MOE-3" value="Buy-Tickets&lt;div&gt;Integration&lt;/div&gt;" style="rounded=0;whiteSpace=wrap;html=1;" vertex="1" parent="1">
          <mxGeometry x="190" y="70" width="120" height="60" as="geometry" />
        </mxCell>
        <mxCell id="Khr1l47vYACz_TMm-MOE-4" value="Buy-Tickets-Service" style="rounded=0;whiteSpace=wrap;html=1;" vertex="1" parent="1">
          <mxGeometry x="60" y="250" width="120" height="60" as="geometry" />
        </mxCell>
        <mxCell id="Khr1l47vYACz_TMm-MOE-5" value="Generate-Reports-Service" style="rounded=0;whiteSpace=wrap;html=1;" vertex="1" parent="1">
          <mxGeometry x="270" y="250" width="120" height="60" as="geometry" />
        </mxCell>
        <mxCell id="Khr1l47vYACz_TMm-MOE-6" value="Create-and-manage-Event" style="rounded=0;whiteSpace=wrap;html=1;" vertex="1" parent="1">
          <mxGeometry x="460" y="250" width="120" height="60" as="geometry" />
        </mxCell>
        <mxCell id="Khr1l47vYACz_TMm-MOE-7" value="create and manage Tickettypes/ Ticketphases Service" style="rounded=0;whiteSpace=wrap;html=1;" vertex="1" parent="1">
          <mxGeometry x="640" y="250" width="120" height="60" as="geometry" />
        </mxCell>
        <mxCell id="Khr1l47vYACz_TMm-MOE-8" value="Create Special Tickets Service (Free,Press usw.)" style="rounded=0;whiteSpace=wrap;html=1;" vertex="1" parent="1">
          <mxGeometry x="60" y="370" width="120" height="60" as="geometry" />
        </mxCell>
        <mxCell id="Khr1l47vYACz_TMm-MOE-9" value="Create and Send-TicketQRCodes-Service (Delete also&lt;span style=&quot;background-color: initial;&quot;&gt;)&lt;/span&gt;&lt;div&gt;&lt;div&gt;&lt;br&gt;&lt;/div&gt;&lt;/div&gt;" style="rounded=0;whiteSpace=wrap;html=1;" vertex="1" parent="1">
          <mxGeometry x="270" y="370" width="120" height="60" as="geometry" />
        </mxCell>
        <mxCell id="Khr1l47vYACz_TMm-MOE-10" value="Send-Tickets-Service" style="rounded=0;whiteSpace=wrap;html=1;" vertex="1" parent="1">
          <mxGeometry x="460" y="370" width="120" height="60" as="geometry" />
        </mxCell>
        <mxCell id="Khr1l47vYACz_TMm-MOE-12" value="Authentication and Roles Service" style="rounded=0;whiteSpace=wrap;html=1;" vertex="1" parent="1">
          <mxGeometry x="640" y="370" width="120" height="60" as="geometry" />
        </mxCell>
        <mxCell id="Khr1l47vYACz_TMm-MOE-14" value="&lt;font style=&quot;font-size: 34px;&quot;&gt;UI&lt;/font&gt;" style="text;html=1;align=center;verticalAlign=middle;whiteSpace=wrap;rounded=0;" vertex="1" parent="1">
          <mxGeometry x="370" y="80" width="60" height="30" as="geometry" />
        </mxCell>
        <mxCell id="Khr1l47vYACz_TMm-MOE-16" value="&lt;font style=&quot;font-size: 25px;&quot;&gt;Backend&lt;/font&gt;" style="text;html=1;align=center;verticalAlign=middle;whiteSpace=wrap;rounded=0;" vertex="1" parent="1">
          <mxGeometry x="385" y="325" width="60" height="30" as="geometry" />
        </mxCell>
      </root>
    </mxGraphModel>
  </diagram>
</mxfile>
